<svg id="Layer_1" data-name="Layer 1" xmlns="http://www.w3.org/2000/svg" viewBox="0 0 95.75 90.66"><defs><style>.cls-1{fill:#fff;}</style></defs><title>Artboard 1</title><path class="cls-1" d="M47.87,0A48,48,0,0,1,95.75,47.87H0A46.91,46.91,0,0,1,16.46,12H38.9a2.83,2.83,0,0,0,3-3,2.83,2.83,0,0,0-3-3H24.83A46.42,46.42,0,0,1,47.87,0Zm3,6a2.83,2.83,0,0,0-3,3,2.83,2.83,0,0,0,3,3h12a2.83,2.83,0,0,0,3-3,2.83,2.83,0,0,0-3-3Zm-3,12a12,12,0,1,0,12,12A12,12,0,0,0,47.87,18Zm0,6a6,6,0,1,1-6,6A6,6,0,0,1,47.87,23.94Zm23.94,0a6,6,0,1,0,6,6A6,6,0,0,0,71.81,23.94Z"/><path class="cls-1" d="M14.66,90.66,9.87,77.2H7.78V90.66H0V58.35L5.69,53H21.84V76.9H17.35l5.09,13.76ZM13.76,70V60.14h-6V70Z"/><path class="cls-1" d="M46.38,90.66h-21V77.8l13.17-12V60.14H33.51V64H25.73v-6L30.82,53H46.08V68.82L32.91,80.49v3H46.08v7.18Z"/><path class="cls-1" d="M71.51,60.14H64.33V90.36H56.55V60.14H49.07V53H71.51Z"/><path class="cls-1" d="M95.75,90.66h-21V77.8L88,65.83V60.14H82.88V64H75.4v-6L80.49,53H95.75V68.82L82.58,80.49v3H95.75Z"/></svg>